<?xml version="1.0" standalone="no"?>
<!DOCTYPE svg PUBLIC "-//W3C//DTD SVG 20010904//EN"
 "http://www.w3.org/TR/2001/REC-SVG-20010904/DTD/svg10.dtd">
<svg version="1.0" xmlns="http://www.w3.org/2000/svg"
 width="98.000000pt" height="100.000000pt" viewBox="0 0 98.000000 100.000000"
 preserveAspectRatio="xMidYMid meet">

<g transform="translate(0.000000,100.000000) scale(0.100000,-0.100000)"
fill="#000000" stroke="none">
<path d="M239 828 c-67 -95 -130 -185 -141 -200 -16 -24 -18 -49 -18 -270 l0
-243 89 -58 90 -59 283 105 283 105 3 236 2 235 -87 61 -88 61 -3 -239 -2
-239 -118 -43 c-64 -23 -152 -55 -194 -71 l-78 -28 0 157 0 157 135 190 c74
105 134 192 134 195 0 3 -38 31 -84 63 l-84 57 -122 -172z"/>
</g>
</svg>
